<svg width="52" height="55" viewBox="0 0 52 55" fill="none" xmlns="http://www.w3.org/2000/svg">
<path fill-rule="evenodd" clip-rule="evenodd" d="M31.8607 53.4584C31.8607 53.3383 31.9744 53.2476 32.0913 53.2476H32.2117L32.3453 52.6999C32.3754 52.5958 32.4622 52.5428 32.5759 52.5428C32.6795 52.5529 32.7798 52.6394 32.7763 52.7461C32.7763 52.7528 32.7763 52.773 32.7696 52.7898L32.6593 53.2476H32.8131L32.9468 52.6999C32.9768 52.5958 33.0637 52.5428 33.1774 52.5428C33.2909 52.5529 33.3846 52.6428 33.3778 52.7528C33.3778 52.7629 33.3746 52.7764 33.3711 52.7898L33.2608 53.2476C33.3746 53.251 33.4849 53.3417 33.4849 53.4584C33.4849 53.5786 33.3846 53.6718 33.2542 53.6718H33.1607L33.1272 53.7995H33.154C33.2709 53.7995 33.3846 53.8927 33.3846 54.0128C33.3846 54.133 33.2843 54.227 33.154 54.227H33.027L32.8933 54.7814C32.8632 54.8848 32.7763 54.9385 32.6627 54.9385C32.5491 54.9318 32.4588 54.8419 32.4588 54.731L32.4656 54.7016L32.5792 54.227H32.4255L32.2917 54.7814C32.2616 54.8848 32.1748 54.9385 32.0612 54.9385C31.9542 54.9284 31.8574 54.8419 31.8574 54.731L31.864 54.7016L31.9776 54.227C31.8541 54.2203 31.7605 54.1296 31.7605 54.0128C31.7605 53.8927 31.8741 53.7995 31.991 53.7995H32.0779L32.1113 53.6718H32.0913C31.9609 53.6718 31.8607 53.5786 31.8607 53.4584ZM32.7128 53.6718H32.5592L32.5257 53.7995H32.6795L32.7128 53.6718Z" fill="#800A7A"/>
<path d="M34.2733 53.9499H34.905C35.0352 53.9499 35.1355 53.8558 35.1355 53.7357C35.1355 53.6155 35.0219 53.5248 34.905 53.5248H34.2733V52.9839H34.9683C35.0953 52.9839 35.2023 52.8973 35.2023 52.7764C35.2023 52.6596 35.0953 52.5597 34.9683 52.5597H34.0628C33.9157 52.5597 33.8054 52.6798 33.8054 52.7965V54.7353C33.8054 54.8487 33.9091 54.9486 34.0394 54.9486C34.1665 54.9486 34.2733 54.8487 34.2733 54.7353V53.9499Z" fill="#800A7A"/>
<path fill-rule="evenodd" clip-rule="evenodd" d="M36.5189 54.4539H35.807L35.6969 54.7915C35.6634 54.889 35.5564 54.9486 35.4762 54.9486C35.346 54.9486 35.2357 54.8621 35.2357 54.7353C35.2357 54.7185 35.239 54.6781 35.2456 54.6613L35.8973 52.7604C35.9408 52.6294 36.0075 52.5328 36.1679 52.5328C36.3284 52.5328 36.3952 52.626 36.442 52.7604L37.0936 54.6613C37.1003 54.6781 37.1037 54.7185 37.1037 54.7353C37.1037 54.8621 37.0001 54.9486 36.863 54.9486C36.7761 54.9486 36.6693 54.8856 36.6358 54.7915L36.5189 54.4539ZM35.9307 54.0733H36.3986L36.2281 53.5021C36.198 53.4047 36.1813 53.2779 36.1679 53.1745C36.1547 53.2779 36.138 53.4047 36.1079 53.5021L35.9307 54.0733Z" fill="#800A7A"/>
<path d="M38.4 54.2371C38.4 54.4211 38.2831 54.5244 38.0524 54.5244C37.9088 54.5244 37.8019 54.4841 37.7217 54.4572C37.6582 54.4345 37.6048 54.4177 37.5545 54.4177C37.431 54.4177 37.334 54.5211 37.334 54.6277C37.334 54.8621 37.8019 54.9486 38.0492 54.9486C38.5269 54.9486 38.8812 54.6815 38.8812 54.217C38.8812 53.7424 38.5237 53.629 38.1962 53.5257C38.1226 53.5055 38.0424 53.4786 37.9556 53.4349C37.8987 53.4081 37.8152 53.3585 37.8152 53.2115C37.8152 53.0141 37.969 52.957 38.1327 52.957C38.2496 52.957 38.3231 52.9839 38.3866 53.0074C38.4435 53.0242 38.4903 53.0443 38.5504 53.0443C38.6974 53.0443 38.7844 52.9435 38.7844 52.8335C38.7844 52.5832 38.3099 52.5328 38.1126 52.5328C37.638 52.5328 37.3373 52.7932 37.3373 53.2249C37.3373 53.7088 37.6916 53.8197 38.0191 53.9196C38.1093 53.9499 38.1928 53.9801 38.2631 54.0095C38.3231 54.0364 38.4 54.0868 38.4 54.2371Z" fill="#800A7A"/>
<path d="M39.6501 54.7353C39.6501 54.8487 39.7537 54.9495 39.8841 54.9495C40.0111 54.9495 40.118 54.8487 40.118 54.7353V52.9872H40.4723C40.5992 52.9872 40.7095 52.8906 40.7095 52.7772C40.7095 52.6571 40.5926 52.563 40.4723 52.563H39.2958C39.1656 52.563 39.0621 52.6831 39.0621 52.7772C39.0621 52.8906 39.1622 52.9872 39.2958 52.9872H39.6501V54.7353Z" fill="#800A7A"/>
<path d="M42.4404 53.9499H43.0721C43.2023 53.9499 43.3027 53.8558 43.3027 53.7357C43.3027 53.6155 43.189 53.5248 43.0721 53.5248H42.4404V52.9839H43.1354C43.2625 52.9839 43.3694 52.8973 43.3694 52.7764C43.3694 52.6596 43.2625 52.5597 43.1354 52.5597H42.2299C42.0828 52.5597 41.9725 52.6798 41.9725 52.7965V54.7353C41.9725 54.8487 42.0762 54.9486 42.2066 54.9486C42.3336 54.9486 42.4404 54.8487 42.4404 54.7353V53.9499Z" fill="#800A7A"/>
<path fill-rule="evenodd" clip-rule="evenodd" d="M45.3509 54.07C45.3509 54.558 45.0602 54.9486 44.4821 54.9486C43.9038 54.9486 43.6131 54.558 43.6131 54.07V53.4081C43.6131 52.9335 43.857 52.5328 44.4821 52.5328C45.107 52.5328 45.3509 52.9335 45.3509 53.4081V54.07ZM44.883 53.4081C44.883 53.1376 44.776 52.957 44.4821 52.957C44.188 52.957 44.081 53.1376 44.081 53.4081V54.07C44.081 54.3371 44.2079 54.5244 44.4821 54.5244C44.756 54.5244 44.883 54.3371 44.883 54.07V53.4081Z" fill="#800A7A"/>
<path fill-rule="evenodd" clip-rule="evenodd" d="M47.3893 54.07C47.3893 54.558 47.0985 54.9486 46.5204 54.9486C45.9423 54.9486 45.6516 54.558 45.6516 54.07V53.4081C45.6516 52.9335 45.8955 52.5328 46.5204 52.5328C47.1453 52.5328 47.3893 52.9335 47.3893 53.4081V54.07ZM46.9214 53.4081C46.9214 53.1376 46.8144 52.957 46.5204 52.957C46.2263 52.957 46.1195 53.1376 46.1195 53.4081V54.07C46.1195 54.3371 46.2464 54.5244 46.5204 54.5244C46.7945 54.5244 46.9214 54.3371 46.9214 54.07V53.4081Z" fill="#800A7A"/>
<path fill-rule="evenodd" clip-rule="evenodd" d="M49.4044 53.4383V54.0129C49.4044 54.4841 49.1472 54.9184 48.3886 54.9184H48.011C47.8707 54.9184 47.7504 54.8083 47.7504 54.6781V52.7999C47.7504 52.6697 47.8707 52.5597 48.011 52.5597H48.3886C49.1438 52.5597 49.4044 52.9738 49.4044 53.4383ZM48.4454 54.4942C48.8131 54.4942 48.9366 54.2775 48.9366 54.0129V53.4383C48.9366 53.1846 48.8063 52.9839 48.4454 52.9839H48.2182V54.4942H48.4454Z" fill="#800A7A"/>
<path fill-rule="evenodd" clip-rule="evenodd" d="M21.7069 22.7882C21.5535 17.3355 21.0296 12.6432 22.8452 7.34708C23.0941 6.27936 22.2932 5.68514 20.4424 5.56435C18.5883 5.64734 16.7356 7.53692 14.8847 11.2328C14.3464 12.237 14.0487 12.1964 13.9914 11.1111C14.4888 5.81938 14.7376 3.17346 14.7376 3.17346C14.6761 -0.140761 13.1843 -0.859045 10.2623 1.01852C8.58067 2.09902 7.46691 3.5192 6.28655 5.11882C3.68498 8.64472 1.89998 12.575 0.931799 16.9095C0.26551 19.8928 -0.673105 26.7431 0.723899 29.4765C1.55348 31.0993 5.02377 33.6504 6.30217 31.5445C6.54367 31.1203 6.51192 29.9628 6.41003 28.6801C6.10511 24.8405 5.95256 22.3586 6.62683 18.4354C7.09983 15.6841 7.88481 13.0675 8.98227 10.5858C9.42437 9.52302 10.9752 7.20227 10.7926 10.0514C10.7769 14.2211 11.0654 17.1007 11.6583 18.6899C12.2515 20.0301 12.9133 19.937 13.6437 18.4108C14.5159 15.9046 15.3978 13.7411 16.2891 11.9203C16.6604 11.2359 17.0627 10.5773 17.4963 9.94462C18.0474 9.0296 18.1945 9.32192 17.9373 10.8216C17.5783 13.1397 15.9879 23.8837 19.4545 24.3659C20.9603 24.3348 21.711 23.809 21.7069 22.7882Z" fill="#800A7A"/>
<path fill-rule="evenodd" clip-rule="evenodd" d="M27.5217 22.9159C21.0684 24.9346 20.0538 1.96628 30.7111 6.93118C30.7111 6.93118 30.5718 6.02676 30.9515 5.55207C31.4364 4.94593 33.8956 5.291 33.706 6.53538C33.5839 7.33717 33.3314 8.36198 33.0514 9.49839C32.0784 13.447 30.7735 18.7429 33.4541 20.7118C33.4541 20.7118 33.6198 21.1767 33.2096 21.2245C32.8253 21.2692 30.5854 21.3332 29.4567 19.3507C29.3808 19.2173 29.2916 18.9972 29.2524 18.7913C28.7048 20.7387 28.0058 22.7644 27.5217 22.9159ZM27.1626 19.5696C27.6792 19.408 29.8434 10.661 29.8434 10.661C30.2169 8.82656 28.1572 6.95512 27.0035 9.03572C24.0161 14.4229 26.2587 19.8523 27.1626 19.5696Z" fill="#800A7A"/>
<path d="M41.3024 15.5539C40.9677 14.6523 40.6644 13.6662 40.387 12.6617C43.1365 9.24373 46.3656 6.03787 46.4643 5.74958C46.9541 4.57862 43.7372 3.54895 43.1573 4.04589C42.7093 4.39853 42.7589 6.04073 42.7589 6.04073C42.2152 7.55172 41.112 9.07565 39.8618 10.5366C39.2298 7.95063 38.7863 5.75042 38.5108 5.56092C37.7292 5.04415 34.5752 5.14377 34.4746 5.85282C34.4042 6.40621 35.6064 7.59624 35.6064 7.59624C36.0885 9.24885 36.8093 11.218 37.5668 13.0602C35.3473 15.4799 33.335 17.6513 33.7085 19.2639C34.2088 21.4237 36.2133 21.5055 36.5826 21.5276C36.9835 21.5439 36.9152 21.1062 36.9152 21.1062C36.613 20.8015 36.4697 19.8971 36.4697 19.8971C36.3432 18.7794 37.2027 17.0602 38.4932 15.2016C39.3142 17.0322 40.1254 18.5343 40.6029 19.167C41.3509 20.1103 42.2013 19.9239 42.5171 19.7157C42.6755 19.616 42.6435 19.4807 42.605 19.3678C41.3024 15.5539 41.6816 16.5762 41.3024 15.5539Z" fill="#800A7A"/>
<path d="M47.2224 27.6175C46.9271 28.0098 47.1455 29.3773 47.1455 29.3773C46.1433 32.5265 45.2197 35.2439 43.8934 38.3183C42.5537 41.4238 41.9874 39.6337 42.6263 37.3909C43.5535 34.1359 44.815 28.891 44.8146 28.5835C44.8124 27.3193 42.5014 26.6188 42.1221 27.0866C41.8008 27.4831 42.0451 28.8473 42.0451 28.8473C41.1663 31.6445 38.6838 39.7908 41.0886 42.2436C42.315 43.4944 43.0715 43.2625 43.5845 42.4771C43.7533 42.2192 44.9988 39.3674 45.5518 37.7899C46.0068 36.4913 46.3465 36.0545 45.7414 38.6358C45.434 39.947 44.1721 48.0967 42.3183 47.5692C40.7956 47.1366 41.3298 48.2933 42.3672 48.4C45.7396 48.746 45.6967 47.8162 46.5772 44.3705C46.9657 42.8996 47.7329 38.1671 48.6513 33.9234C49.2822 31.442 50.039 29.3496 50.0563 29.1077C50.0245 27.8502 47.6288 27.1446 47.2224 27.6175Z" fill="#800A7A"/>
<path fill-rule="evenodd" clip-rule="evenodd" d="M33.8515 45.1324C27.5858 47.0921 27.1833 24.4415 37.5312 29.2622C37.5312 29.2622 37.3959 28.3844 37.7645 27.9233C38.2354 27.3344 40.6231 27.6696 40.4391 28.8784C40.3219 29.6481 40.0802 30.6349 39.8117 31.7309C38.8723 35.5664 37.605 40.7408 40.1944 42.6426C40.1944 42.6426 40.3553 43.0945 39.9571 43.1407C39.584 43.1844 37.409 43.2466 36.3132 41.3213C36.2395 41.1919 36.1527 40.9777 36.1147 40.7778C35.5831 42.6686 34.3215 44.9854 33.8515 45.1324ZM33.5029 41.8832C34.0043 41.727 36.6887 32.8843 36.6887 32.8843C37.0513 31.1027 35.0513 29.2858 33.9311 31.306C31.0308 36.5366 32.6254 42.1579 33.5029 41.8832Z" fill="#800A7A"/>
<path fill-rule="evenodd" clip-rule="evenodd" d="M27.727 32.5047C27.132 37.5161 26.9252 40.908 28.1575 45.9388C28.2981 46.9434 27.5106 47.4239 25.7953 47.3811C24.0939 47.1509 22.0999 45.6994 20.7019 42.1403C20.2895 41.1701 20.0119 41.1827 19.8688 42.1781C19.8867 47.0955 19.8957 49.5542 19.8957 49.5542C19.5634 52.6025 18.6842 53.0292 16.1481 51.0561C14.6887 49.9212 13.7804 48.5193 12.826 46.9476C10.7223 43.4826 9.40452 39.7119 8.87322 35.6379C8.50749 32.834 8.2129 26.4432 9.72725 24.0408C10.6266 22.6149 13.4814 20.6641 14.484 22.711C14.6713 23.1217 14.5457 24.1853 14.3452 25.3588C13.7446 28.8717 13.3975 31.1456 13.6925 34.8164C13.8993 37.391 14.4049 39.8673 15.2095 42.2453C15.5285 43.2617 16.7643 45.5289 16.8331 42.8888C17.1656 39.0449 17.6711 36.4157 18.3497 35.0012C19.0077 33.8151 19.6097 33.9562 20.1558 35.4228C20.5115 36.8475 20.8809 38.1596 21.2636 39.3582C21.7072 40.7493 21.9617 41.7413 22.8973 42.8846C23.4529 43.5633 24.0551 43.9631 23.9245 42.3293C23.7867 40.163 22.5487 31.0196 25.7829 30.8633C27.1678 31.017 27.8159 31.5647 27.727 32.5047Z" fill="#800A7A"/>
<path fill-rule="evenodd" clip-rule="evenodd" d="M51.4855 28.6927L49.8106 27.1942C45.8064 24.1903 38.7835 25.0799 32.2675 26.9254C27.1736 28.3685 23.7941 30.6466 20.3917 31.8688C18.8951 32.3535 17.0192 32.0712 16.5261 30.6113C16.1058 29.3673 16.3209 28.3996 17.7664 27.4453C22.9105 24.0467 50.2582 17.2328 51.4855 28.6927Z" fill="#F1B301"/>
</svg>
