<svg width="188" height="46" viewBox="0 0 188 46" fill="none" xmlns="http://www.w3.org/2000/svg">
<path fill-rule="evenodd" clip-rule="evenodd" d="M155.353 23.8451C155.353 24.807 155.238 25.686 155.01 26.4824C154.782 27.2787 154.447 27.9626 154.007 28.5342C153.567 29.1058 153.029 29.5513 152.394 29.8706C151.758 30.1899 151.034 30.3496 150.22 30.3496C149.256 30.3496 148.424 30.186 147.722 29.8588C147.02 29.5316 146.441 29.0802 145.984 28.5047V35.0328H144.502V17.317H145.884L145.959 19.1264C146.416 18.4878 146.993 17.9871 147.691 17.6244C148.389 17.2618 149.219 17.0804 150.183 17.0804C151.005 17.0804 151.738 17.2342 152.381 17.5417C153.025 17.8491 153.567 18.2867 154.007 18.8544C154.447 19.422 154.782 20.106 155.01 20.9062C155.238 21.7065 155.353 22.6033 155.353 23.5967V23.8451ZM153.858 23.5967C153.858 22.8556 153.777 22.1618 153.615 21.5153C153.453 20.8688 153.208 20.309 152.88 19.836C152.552 19.3629 152.134 18.9904 151.628 18.7184C151.121 18.4464 150.527 18.3104 149.846 18.3104C149.306 18.3104 148.829 18.3774 148.413 18.5114C147.998 18.6455 147.635 18.8248 147.323 19.0495C147.012 19.2742 146.746 19.5344 146.526 19.8301C146.306 20.1257 146.125 20.4352 145.984 20.7584V26.8963C146.142 27.2195 146.339 27.5191 146.576 27.7951C146.813 28.071 147.091 28.3095 147.411 28.5106C147.73 28.7116 148.094 28.8693 148.501 28.9836C148.908 29.0979 149.364 29.1551 149.871 29.1551C150.552 29.1551 151.142 29.0191 151.64 28.7471C152.138 28.4751 152.552 28.1006 152.88 27.6236C153.208 27.1466 153.453 26.5849 153.615 25.9383C153.777 25.2918 153.858 24.5941 153.858 23.8451V23.5967ZM160.324 30.113H158.829V11.9478H160.324V30.113ZM172.882 30.113C172.798 29.8923 172.734 29.6222 172.688 29.3029C172.643 28.9836 172.612 28.6584 172.595 28.3273C172.371 28.6032 172.105 28.8634 171.798 29.1078C171.49 29.3522 171.146 29.5651 170.764 29.7464C170.382 29.9278 169.962 30.0736 169.505 30.184C169.049 30.2944 168.554 30.3496 168.023 30.3496C167.367 30.3496 166.771 30.2589 166.235 30.0776C165.699 29.8962 165.243 29.642 164.865 29.3148C164.487 28.9876 164.194 28.6032 163.986 28.1617C163.779 27.7202 163.675 27.2392 163.675 26.7189C163.675 26.096 163.816 25.5343 164.098 25.0336C164.381 24.533 164.788 24.1072 165.319 23.7564C165.851 23.4055 166.497 23.1375 167.257 22.9522C168.017 22.7669 168.87 22.6743 169.817 22.6743H172.583V21.2196C172.583 20.3051 172.286 19.5856 171.692 19.0613C171.098 18.537 170.232 18.2749 169.094 18.2749C168.571 18.2749 168.089 18.3419 167.649 18.4759C167.209 18.61 166.829 18.7952 166.509 19.0318C166.189 19.2683 165.94 19.5423 165.762 19.8537C165.583 20.1651 165.494 20.4982 165.494 20.853L163.999 20.8412C163.999 20.3603 164.123 19.8951 164.373 19.4457C164.622 18.9963 164.973 18.5962 165.425 18.2453C165.878 17.8945 166.422 17.6126 167.057 17.3997C167.693 17.1869 168.397 17.0804 169.169 17.0804C169.883 17.0804 170.541 17.1672 171.144 17.3406C171.746 17.5141 172.263 17.7742 172.695 18.1211C173.127 18.4681 173.463 18.9017 173.704 19.422C173.945 19.9424 174.065 20.5495 174.065 21.2433V27.4403C174.065 27.6611 174.073 27.8897 174.09 28.1262C174.107 28.3627 174.134 28.5914 174.171 28.8121C174.208 29.0329 174.252 29.2438 174.302 29.4449C174.352 29.6459 174.41 29.8213 174.476 29.9711V30.113H172.882ZM168.197 29.096C168.737 29.096 169.237 29.0309 169.698 28.9008C170.159 28.7708 170.577 28.5914 170.95 28.3627C171.324 28.1341 171.648 27.868 171.922 27.5645C172.196 27.2609 172.416 26.9318 172.583 26.577V23.7623H170.029C169.264 23.7623 168.581 23.8273 167.979 23.9574C167.377 24.0875 166.868 24.2748 166.453 24.5192C166.038 24.7636 165.72 25.0612 165.5 25.4121C165.28 25.7629 165.17 26.1591 165.17 26.6006C165.17 26.9475 165.24 27.2727 165.382 27.5763C165.523 27.8798 165.724 28.144 165.986 28.3687C166.247 28.5934 166.565 28.7708 166.939 28.9008C167.313 29.0309 167.732 29.096 168.197 29.096ZM182.312 28.0789L186.249 17.317H187.856L182.15 32.159C182.034 32.4507 181.887 32.7779 181.708 33.1406C181.53 33.5033 181.297 33.8423 181.011 34.1576C180.724 34.473 180.367 34.7391 179.939 34.9559C179.511 35.1727 178.99 35.2811 178.376 35.2811C178.293 35.2811 178.197 35.2752 178.089 35.2634C177.981 35.2516 177.873 35.2378 177.765 35.222C177.657 35.2062 177.555 35.1885 177.46 35.1688C177.364 35.1491 177.288 35.1313 177.229 35.1156L177.217 33.9448C177.317 33.9605 177.452 33.9763 177.622 33.9921C177.792 34.0078 177.915 34.0157 177.989 34.0157C178.388 34.0157 178.741 33.9665 179.048 33.8679C179.356 33.7693 179.624 33.6235 179.852 33.4303C180.08 33.2372 180.282 32.9947 180.456 32.703C180.631 32.4113 180.788 32.0762 180.93 31.6978L181.577 30.0066L176.494 17.317H178.126L182.312 28.0789Z" fill="white"/>
<path fill-rule="evenodd" clip-rule="evenodd" d="M0.393616 3.92892V42.1512C0.393616 43.4816 1.17362 44.6319 2.30672 45.1807L24.7367 23.0335L2.31572 0.89502C1.17782 1.44212 0.393616 2.59512 0.393616 3.92892ZM7.55332 43.7521L31.8964 30.1569L26.7521 25.1807L7.55332 43.7521ZM39.2296 21.0347C39.9945 21.6608 40.488 22.6473 40.488 23.7569C40.488 24.8499 40.0095 25.8232 39.2642 26.4504L34.3787 29.4664L29.0325 23.7503L34.3751 18.0378L39.2296 21.0347ZM31.8964 15.9188L7.55332 2.32352L26.7521 20.895L31.8964 15.9188Z" fill="white"/>
<path fill-rule="evenodd" clip-rule="evenodd" d="M88.535 31.1347C91.9 31.1347 94.642 28.55 94.642 25.0424C94.642 21.5101 91.9 18.9502 88.535 18.9502C85.171 18.9502 82.429 21.5101 82.429 25.0424C82.429 28.55 85.171 31.1347 88.535 31.1347ZM88.535 21.3508C90.38 21.3508 91.969 22.8506 91.969 25.0424C91.969 27.2096 90.38 28.7341 88.535 28.7341C86.691 28.7341 85.102 27.2124 85.102 25.0424C85.102 22.8506 86.691 21.3508 88.535 21.3508Z" fill="white"/>
<path fill-rule="evenodd" clip-rule="evenodd" d="M102.105 31.1347C105.47 31.1347 108.212 28.55 108.212 25.0424C108.212 21.5101 105.47 18.9502 102.105 18.9502C98.74 18.9502 95.998 21.5129 95.998 25.0424C95.998 28.55 98.74 31.1347 102.105 31.1347ZM102.105 21.3508C103.949 21.3508 105.539 22.8506 105.539 25.0424C105.539 27.2096 103.949 28.7341 102.105 28.7341C100.261 28.7341 98.672 27.2124 98.672 25.0424C98.672 22.8506 100.261 21.3508 102.105 21.3508Z" fill="white"/>
<path fill-rule="evenodd" clip-rule="evenodd" d="M121.782 30.2286V19.3201H119.125V20.3093H119.028C118.399 19.5941 117.192 18.9502 115.673 18.9502C112.487 18.9502 109.569 21.6191 109.569 25.0497C109.569 28.4557 112.487 31.1027 115.673 31.1027C117.195 31.1027 118.402 30.4587 119.028 29.7216H119.125V30.5957C119.125 32.9221 117.824 34.1579 115.725 34.1579C114.013 34.1579 112.95 32.9906 112.516 32.0014L110.08 32.9687C110.781 34.5799 112.64 36.55 115.727 36.55C119.008 36.55 121.782 34.7169 121.782 30.2286ZM115.923 21.3451C117.827 21.3451 119.324 22.9097 119.324 25.0497C119.324 27.1678 117.827 28.7105 115.923 28.7105C113.993 28.7105 112.375 27.1678 112.375 25.0497C112.375 22.9097 113.993 21.3451 115.923 21.3451Z" fill="white"/>
<path d="M125.853 13.5356V29.7816H123.139V13.5356H125.853Z" fill="white"/>
<path fill-rule="evenodd" clip-rule="evenodd" d="M137.955 28.4347L135.949 27.0503C135.28 28.0666 134.367 28.7368 133.051 28.7368C131.738 28.7368 130.801 28.1133 130.198 26.891L138.067 23.518L137.799 22.8258C137.31 21.4662 135.816 18.9502 132.762 18.9502C129.729 18.9502 127.21 21.4195 127.21 25.0424C127.21 28.4594 129.707 31.1347 133.051 31.1347C135.747 31.1347 137.308 29.4262 137.955 28.4347ZM135.033 22.5979L129.774 24.8584C129.707 22.5072 131.536 21.3069 132.849 21.3069C133.874 21.3069 134.744 21.837 135.033 22.5979Z" fill="white"/>
<path d="M72.6121 22.6423V20.2379H80.948C81.029 20.657 81.071 21.1527 81.071 21.6892C81.071 23.4932 80.564 25.7238 78.9289 27.3131C77.3385 28.9229 75.3065 29.7814 72.6147 29.7814C67.6254 29.7814 63.4299 25.8311 63.4299 20.9815C63.4299 16.1318 67.6254 12.1816 72.6147 12.1816C75.3749 12.1816 77.3411 13.2343 78.8185 14.6064L77.073 16.303C76.0136 15.3372 74.5784 14.5859 72.6121 14.5859C68.9687 14.5859 66.1191 17.44 66.1191 20.9815C66.1191 24.5229 68.9687 27.377 72.6121 27.377C74.9753 27.377 76.3212 26.4546 77.1834 25.6165C77.8827 24.9368 78.3427 23.9659 78.5241 22.6398L72.6121 22.6423Z" fill="white"/>
</svg>
