<svg width="78" height="78" viewBox="0 0 78 78" fill="none" xmlns="http://www.w3.org/2000/svg">
<path d="M62.972 40.352L28.5252 63.3165C28.2805 63.4794 27.9962 63.5728 27.7026 63.5868C27.409 63.6009 27.1171 63.535 26.858 63.3963C26.5989 63.2576 26.3822 63.0511 26.2311 62.799C26.08 62.5469 26.0001 62.2585 26 61.9645V16.0355C26.0001 15.7416 26.08 15.4532 26.2311 15.2011C26.3822 14.9489 26.5989 14.7425 26.858 14.6038C27.1171 14.465 27.409 14.3992 27.7026 14.4132C27.9962 14.4273 28.2805 14.5207 28.5252 14.6835L62.972 37.648C63.1945 37.7964 63.377 37.9975 63.5032 38.2333C63.6294 38.4692 63.6955 38.7325 63.6955 39C63.6955 39.2675 63.6294 39.5309 63.5032 39.7667C63.377 40.0026 63.1945 40.2036 62.972 40.352Z" fill="black"/>
</svg>
