<svg width="184" height="47" viewBox="0 0 184 47" fill="none" xmlns="http://www.w3.org/2000/svg">
<path fill-rule="evenodd" clip-rule="evenodd" d="M72.3117 31.8133L72.0024 30.931C71.7961 30.3429 71.5594 29.6653 71.2922 28.8984C71.025 28.1314 70.7883 27.4539 70.5821 26.8657L70.2727 25.9835H62.2008L60.1617 31.8133H57.5039L64.9852 11.4442H67.4883L74.9696 31.8133H72.3117ZM66.1945 14.5356L65.8641 15.4743C65.6438 16.1001 65.3742 16.8741 65.0555 17.7963C64.7367 18.7186 64.4156 19.6408 64.0922 20.563C63.7688 21.4853 63.4969 22.2593 63.2766 22.8851L62.9461 23.8238H69.5274L66.2789 14.5356H66.1945ZM84.616 16.4553C86.548 16.4553 88.113 17.1658 89.313 18.5868C90.513 20.0078 91.113 21.8805 91.113 24.2049C91.113 26.5293 90.518 28.402 89.327 29.823C88.137 31.2439 86.585 31.9544 84.673 31.9544C83.595 31.9544 82.638 31.7262 81.804 31.2698C80.97 30.8134 80.313 30.1711 79.835 29.343H79.779V36.8949H77.332V16.5965H79.652V19.0668H79.709C80.149 18.2763 80.815 17.6434 81.706 17.1682C82.596 16.693 83.566 16.4553 84.616 16.4553ZM84.166 29.7665C85.507 29.7665 86.583 29.2607 87.394 28.249C88.205 27.2374 88.61 25.8894 88.61 24.2049C88.61 22.5204 88.205 21.1724 87.394 20.1607C86.583 19.1491 85.507 18.6433 84.166 18.6433C82.863 18.6433 81.804 19.1561 80.988 20.1819C80.173 21.2076 79.765 22.5486 79.765 24.2049C79.765 25.8611 80.173 27.2021 80.988 28.2279C81.804 29.2536 82.863 29.7665 84.166 29.7665ZM101.323 16.4553C103.254 16.4553 104.82 17.1658 106.02 18.5868C107.22 20.0078 107.82 21.8805 107.82 24.2049C107.82 26.5293 107.224 28.402 106.034 29.823C104.843 31.2439 103.292 31.9544 101.379 31.9544C100.301 31.9544 99.345 31.7262 98.51 31.2698C97.676 30.8134 97.02 30.1711 96.541 29.343H96.485V36.8949H94.038V16.5965H96.359V19.0668H96.415C96.856 18.2763 97.521 17.6434 98.412 17.1682C99.302 16.693 100.273 16.4553 101.323 16.4553ZM100.873 29.7665C102.213 29.7665 103.289 29.2607 104.1 28.249C104.911 27.2374 105.316 25.8894 105.316 24.2049C105.316 22.5204 104.911 21.1724 104.1 20.1607C103.289 19.1491 102.213 18.6433 100.873 18.6433C99.57 18.6433 98.51 19.1561 97.695 20.1819C96.879 21.2076 96.471 22.5486 96.471 24.2049C96.471 25.8611 96.879 27.2021 97.695 28.2279C98.51 29.2536 99.57 29.7665 100.873 29.7665ZM117.326 26.2093C117.448 28.0067 118.195 29.4465 119.569 30.5287C120.942 31.611 122.702 32.1521 124.849 32.1521C127.184 32.1521 129.033 31.6086 130.397 30.5217C131.761 29.4348 132.443 27.9597 132.443 26.0964C132.443 24.6378 131.984 23.4709 131.065 22.5957C130.146 21.7205 128.637 21.0194 126.537 20.4924L124.413 19.9278C123.035 19.5702 122.044 19.1444 121.439 18.6503C120.834 18.1563 120.532 17.5234 120.532 16.7518C120.532 15.7543 120.947 14.945 121.777 14.3239C122.606 13.7028 123.677 13.3922 124.99 13.3922C126.312 13.3922 127.385 13.7075 128.21 14.338C129.035 14.9685 129.504 15.8295 129.617 16.9212H132.148C132.092 15.2084 131.402 13.811 130.081 12.7288C128.759 11.6466 127.09 11.1055 125.074 11.1055C122.965 11.1055 121.242 11.6419 119.906 12.7147C118.57 13.7875 117.902 15.1708 117.902 16.8647C117.902 19.5279 119.702 21.3206 123.302 22.2428L125.904 22.9204C127.273 23.2685 128.269 23.7202 128.892 24.2755C129.516 24.8307 129.827 25.5412 129.827 26.4069C129.827 27.4045 129.38 28.2302 128.485 28.8843C127.589 29.5383 126.457 29.8653 125.088 29.8653C123.645 29.8653 122.445 29.5312 121.488 28.8631C120.532 28.1949 119.993 27.3104 119.871 26.2093H117.326ZM136.24 13.1664V16.5965H134.131V18.6292H136.24V27.8609C136.24 29.3195 136.533 30.3617 137.119 30.9875C137.705 31.6133 138.682 31.9262 140.051 31.9262C140.342 31.9262 140.639 31.9144 140.944 31.8909C141.249 31.8674 141.476 31.8368 141.626 31.7992V29.7241C141.542 29.7336 141.382 29.7477 141.148 29.7665C140.913 29.7853 140.721 29.7947 140.571 29.7947C139.924 29.7947 139.449 29.63 139.144 29.3007C138.839 28.9713 138.687 28.4584 138.687 27.7621V18.6292H141.64V16.5965H138.687V13.1664H136.24ZM150.949 31.9544C148.821 31.9544 147.124 31.251 145.859 29.8441C144.593 28.4373 143.96 26.5575 143.96 24.2049C143.96 21.8428 144.593 19.9608 145.859 18.5586C147.124 17.1564 148.821 16.4553 150.949 16.4553C153.078 16.4553 154.774 17.1564 156.04 18.5586C157.306 19.9608 157.938 21.8428 157.938 24.2049C157.938 26.5575 157.306 28.4373 156.04 29.8441C154.774 31.251 153.078 31.9544 150.949 31.9544ZM150.949 29.7665C152.365 29.7665 153.469 29.2748 154.261 28.2914C155.053 27.308 155.449 25.9458 155.449 24.2049C155.449 22.4545 155.053 21.09 154.261 20.1113C153.469 19.1326 152.365 18.6433 150.949 18.6433C149.534 18.6433 148.43 19.135 147.638 20.1184C146.845 21.1018 146.449 22.4639 146.449 24.2049C146.449 25.9458 146.848 27.308 147.645 28.2914C148.442 29.2748 149.543 29.7665 150.949 29.7665ZM160.863 31.8133H163.31V22.3981C163.31 21.3253 163.608 20.4595 164.203 19.8008C164.799 19.142 165.588 18.8127 166.573 18.8127C166.873 18.8127 167.147 18.8268 167.396 18.855C167.644 18.8832 167.815 18.9162 167.909 18.9538V16.54C167.806 16.5212 167.665 16.5024 167.487 16.4836C167.309 16.4647 167.112 16.4553 166.896 16.4553C166.015 16.4553 165.239 16.6906 164.569 17.1611C163.899 17.6317 163.451 18.2669 163.226 19.0668H163.17V16.5965H160.863V31.8133ZM176.388 18.615C175.198 18.615 174.211 19.0103 173.428 19.8008C172.646 20.5913 172.212 21.6311 172.128 22.9204H180.467C180.438 21.6311 180.052 20.5913 179.306 19.8008C178.561 19.0103 177.588 18.615 176.388 18.615ZM180.41 27.4656H182.829C182.623 28.7737 181.929 29.8488 180.748 30.6911C179.567 31.5333 178.165 31.9544 176.543 31.9544C174.415 31.9544 172.725 31.2604 171.474 29.8724C170.222 28.4843 169.596 26.614 169.596 24.2613C169.596 21.8993 170.22 20.0078 171.467 18.5868C172.713 17.1658 174.368 16.4553 176.431 16.4553C178.456 16.4553 180.059 17.1235 181.24 18.4598C182.421 19.7961 183.012 21.617 183.012 23.9226V24.8824H172.128V25.0236C172.128 26.4728 172.535 27.6303 173.351 28.4961C174.167 29.3618 175.249 29.7947 176.599 29.7947C177.546 29.7947 178.364 29.5853 179.053 29.1666C179.742 28.7478 180.195 28.1808 180.41 27.4656Z" fill="white"/>
<path fill-rule="evenodd" clip-rule="evenodd" d="M28.3143 0.0527344C25.9894 0.150234 23.1723 1.60133 21.505 3.55213C20.0062 5.28463 18.6979 8.04953 19.0506 10.7006C21.6463 10.9037 24.2912 9.38323 25.907 7.43143C27.5195 5.47613 28.6113 2.76253 28.3143 0.0527344ZM27.6571 46.1911C30.8072 46.1324 32.8024 43.3333 34.7312 40.5169C36.8445 37.4322 37.7778 34.4414 37.9171 33.995C37.9248 33.9701 37.9301 33.9532 37.933 33.9445C37.9316 33.9439 37.9277 33.9423 37.9214 33.9398C37.6192 33.817 31.7878 31.4488 31.7299 24.6021C31.6729 18.9477 36.1869 16.1353 36.6826 15.8265C36.6997 15.8158 36.712 15.8081 36.7192 15.8034C34.003 11.8348 29.7737 11.2907 28.2667 11.2285C26.0655 11.0062 23.93 11.8468 22.1851 12.5337C21.0763 12.9702 20.1253 13.3445 19.4154 13.3445C18.6253 13.3445 17.6482 12.9571 16.5516 12.5223C15.1164 11.9532 13.4765 11.3029 11.7835 11.334C7.8621 11.3927 4.2434 13.6142 2.2239 17.1253C-1.8543 24.1953 1.1781 34.6717 5.151 40.4042C7.0957 43.2079 9.4081 46.3634 12.4492 46.2498C13.807 46.1954 14.7733 45.7843 15.7727 45.3591C16.9277 44.8677 18.1269 44.3575 20.0255 44.3575C21.8337 44.3575 22.9773 44.8519 24.0773 45.3275C25.1294 45.7823 26.1415 46.2198 27.6571 46.1911Z" fill="white"/>
</svg>
