<svg width="24" height="24" viewBox="0 0 24 24" fill="none" xmlns="http://www.w3.org/2000/svg">
<path d="M20.0001 13V20C20.0001 20.2652 19.8947 20.5196 19.7072 20.7071C19.5196 20.8946 19.2653 21 19.0001 21H5.00006C4.73484 21 4.48049 20.8946 4.29295 20.7071C4.10542 20.5196 4.00006 20.2652 4.00006 20V13H20.0001ZM14.5001 2C15.0907 1.9998 15.6718 2.14908 16.1892 2.43393C16.7066 2.71879 17.1436 3.12995 17.4593 3.62914C17.775 4.12832 17.9593 4.69929 17.9949 5.28886C18.0305 5.87843 17.9164 6.46743 17.6631 7.001L21.0001 7C21.2653 7 21.5196 7.10536 21.7072 7.2929C21.8947 7.48043 22.0001 7.73479 22.0001 8V11C22.0001 11.2652 21.8947 11.5196 21.7072 11.7071C21.5196 11.8946 21.2653 12 21.0001 12H3.00006C2.73484 12 2.48049 11.8946 2.29295 11.7071C2.10542 11.5196 2.00006 11.2652 2.00006 11V8C2.00006 7.73479 2.10542 7.48043 2.29295 7.2929C2.48049 7.10536 2.73484 7 3.00006 7L6.33706 7.001C5.98082 6.25268 5.90169 5.40221 6.11376 4.601C6.32584 3.7998 6.81535 3.09985 7.49516 2.62576C8.17497 2.15167 9.00096 1.9342 9.82609 2.01207C10.6512 2.08994 11.422 2.4581 12.0011 3.051C12.3261 2.71753 12.7148 2.45268 13.144 2.27215C13.5733 2.09162 14.0344 1.99908 14.5001 2ZM9.50006 4C9.11485 4.00019 8.74447 4.14858 8.46568 4.41441C8.18688 4.68025 8.02105 5.04315 8.00254 5.42792C7.98403 5.81269 8.11425 6.18984 8.36624 6.48121C8.61822 6.77257 8.97264 6.95583 9.35606 6.993L9.50006 7H11.0001V5.5C11 5.12712 10.8611 4.76761 10.6104 4.49158C10.3597 4.21556 10.0152 4.0428 9.64406 4.007L9.50006 4ZM14.5001 4L14.3561 4.007C14.0094 4.04021 13.6852 4.19298 13.4389 4.43911C13.1925 4.68525 13.0395 5.0094 13.0061 5.356L13.0001 5.5V7H14.5001L14.6441 6.993C15.0151 6.95703 15.3594 6.7842 15.61 6.50819C15.8605 6.23218 15.9993 5.87277 15.9993 5.5C15.9993 5.12724 15.8605 4.76783 15.61 4.49182C15.3594 4.21581 15.0151 4.04297 14.6441 4.007L14.5001 4Z" fill="#ECB559"/>
</svg>
