<svg width="165" height="45" viewBox="0 0 165 45" fill="none" xmlns="http://www.w3.org/2000/svg">
<mask id="mask0" style="mask-type:alpha" maskUnits="userSpaceOnUse" x="0" y="0" width="165" height="45">
<path fill-rule="evenodd" clip-rule="evenodd" d="M0 44.5946H165V0H0V44.5946Z" fill="white"/>
</mask>
<g mask="url(#mask0)">
<path fill-rule="evenodd" clip-rule="evenodd" d="M77.5156 15.9677H78.6407C79.7447 15.9677 80.3956 15.3946 80.3956 14.3262C80.3956 13.2643 79.7447 12.6912 78.6552 12.6912H77.5156V15.9677ZM79.3416 10.7031C81.5352 10.7031 83.0212 12.1247 83.0212 14.3195C83.0212 16.4986 81.4574 17.9201 79.1861 17.9201H77.5156V20.9134H74.9189V10.7031H79.3416Z" fill="#002930"/>
<path fill-rule="evenodd" clip-rule="evenodd" d="M86.409 18.8194H87.6184C89.3101 18.8194 90.2165 17.7931 90.2165 15.755C90.2165 13.8381 89.2613 12.7973 87.6184 12.7973H86.409V18.8194ZM87.9584 10.7026C91.0438 10.7026 92.8553 12.4931 92.8553 15.7485C92.8553 19.0105 91.0373 20.9142 87.9584 20.9142H83.8123V10.7026H87.9584Z" fill="#002930"/>
<path fill-rule="evenodd" clip-rule="evenodd" d="M96.3498 15.9682H97.4749C98.5789 15.9682 99.2298 15.3951 99.2298 14.3267C99.2298 13.2648 98.5789 12.6917 97.4894 12.6917H96.3498V15.9682ZM98.1759 10.7036C100.369 10.7036 101.856 12.1251 101.856 14.32C101.856 16.4991 100.292 17.9206 98.0204 17.9206H96.3499V20.9139H93.7532V10.7036H98.1759Z" fill="#002930"/>
<path fill-rule="evenodd" clip-rule="evenodd" d="M74.9189 36.3904H77.5156V26.1802H74.9189V36.3904Z" fill="#002930"/>
<path fill-rule="evenodd" clip-rule="evenodd" d="M81.0667 36.3909V28.2741H78.2499V26.1807H86.4735V28.2741H83.6568V36.3909H81.0667Z" fill="#002930"/>
<path fill-rule="evenodd" clip-rule="evenodd" d="M86.436 33.3693H93.682V31.1401H86.436V33.3693Z" fill="#002930"/>
<path fill-rule="evenodd" clip-rule="evenodd" d="M97.3244 32.28H99.6524L98.5207 28.346H98.464L97.3244 32.28ZM100.162 34.1481H96.8224L96.1715 36.3917H93.5248L96.9567 26.1802H100.133L103.565 36.3917H100.806L100.162 34.1481Z" fill="#002930"/>
<path fill-rule="evenodd" clip-rule="evenodd" d="M103.288 31.282C103.288 27.9488 105.207 26.0029 108.249 26.0029C110.832 26.0029 112.791 27.6656 112.869 30.0791H110.371C110.244 28.8763 109.388 28.0832 108.249 28.0832C106.834 28.0832 105.935 29.2939 105.935 31.2754C105.935 33.2779 106.827 34.4873 108.256 34.4873C109.395 34.4873 110.223 33.7377 110.385 32.5414H112.883C112.763 34.9682 110.881 36.5676 108.249 36.5676C105.192 36.5676 103.288 34.6217 103.288 31.282Z" fill="#002930"/>
<path fill-rule="evenodd" clip-rule="evenodd" d="M116.434 32.28H118.762L117.631 28.346H117.574L116.434 32.28ZM119.272 34.1481H115.932L115.282 36.3917H112.635L116.067 26.1802H119.243L122.675 36.3917H119.916L119.272 34.1481Z" fill="#002930"/>
<path fill-rule="evenodd" clip-rule="evenodd" d="M125.887 34.2959H127.096C128.788 34.2959 129.694 33.2697 129.694 31.2316C129.694 29.3147 128.739 28.2739 127.096 28.2739H125.887V34.2959ZM127.436 26.1792C130.522 26.1792 132.333 27.9696 132.333 31.225C132.333 34.487 130.515 36.3908 127.436 36.3908H123.29V26.1792H127.436Z" fill="#002930"/>
<path fill-rule="evenodd" clip-rule="evenodd" d="M140.229 36.3909H133.231V26.1807H140.229V28.2741H135.828V30.3056H139.967V32.2159H135.828V34.2962H140.229V36.3909Z" fill="#002930"/>
<path fill-rule="evenodd" clip-rule="evenodd" d="M150.254 36.3909V30.0158H150.204L147.678 36.3909H146.192L143.673 30.0158H143.617V36.3909H141.331V26.1807H144.331L146.906 32.8522H146.963L149.54 26.1807H152.54V36.3909H150.254Z" fill="#002930"/>
<path fill-rule="evenodd" clip-rule="evenodd" d="M156.671 36.3909V32.8812L153.155 26.1807H155.942L157.972 30.4255H158.023L160.046 26.1807H162.785L159.268 32.8812V36.3909H156.671Z" fill="#002930"/>
<path fill-rule="evenodd" clip-rule="evenodd" d="M14.9983 7.35059C6.72907 7.35059 -0.000427246 14.0789 -0.000427246 22.3494C-0.000427246 30.6186 6.72907 37.347 14.9983 37.347C23.2676 37.347 29.996 30.6186 29.996 22.3494C29.996 14.0789 23.2676 7.35059 14.9983 7.35059Z" fill="#00B533"/>
<path fill-rule="evenodd" clip-rule="evenodd" d="M40.0972 44.6972H30.8633L41.7773 0H51.0112L40.0972 44.6972Z" fill="#002930"/>
<path fill-rule="evenodd" clip-rule="evenodd" d="M53.5339 44.6972H44.3L55.214 0H64.4491L53.5339 44.6972Z" fill="#002930"/>
</g>
</svg>
